# xmcd
#
# Track frame offsets: 
#        150
#        23003
#        41133
#        53719
#        67745
#        82138
#        96309
#        121812
#        151919
#        165071
#        173903
#        186358
#        199223
#        225903
#        241955
#        248456
#        263600
#        278470
#        298239
#        312486
#        324987
#
# Disc length: 4509 seconds
#
# Revision: 0
# Processed by: cddbd v1.5.2PL0 Copyright (c) Steve Scherf et al.
# Submitted via: ExactAudioCopy v1.0b3
#
DISCID=0f119b15
DTITLE=Various Artist - Oh Happy Day (Days of Happiness)
DYEAR=2010
DGENRE=Gospel
TTITLE0=The Edwin Hawkins Singers - Oh Happy Day
TTITLE1=Harry Belafonte - Swing Low Sweet Chariot 
TTITLE2=Golden Gate Quartet - Every Time, Lord, I Feel The Spirit
TTITLE3=Etta James - Down By The Riverside
TTITLE4=The Canaan Travelers - Get Away, Jordan
TTITLE5=Mahalia Jackson - Go Tell It On The Mountain
TTITLE6=The Myra Walker Singers - I Am Redeemed
TTITLE7=Cissy Houston - How Sweet It Is
TTITLE8=The Jordanaires - In The Sweet By And By
TTITLE9=The Blackstone Family Singers - Joshua Fit The Battle of Jeric
TTITLE9=ho
TTITLE10=Kate Smith - That Old-Time Religion
TTITLE11=Spirit of Freedom Singers - Kum Bah Yah
TTITLE12=Mahalia Jackson - In The Upper Room
TTITLE13=The Tennessee Gospel Society - Where You There?
TTITLE14=Sister Rosetta Tharpe - Oh, The Joy That Came To Me
TTITLE15=Harry Belafonte - Oh Freedom
TTITLE16=Golden Gate Quartet - Lord In My Heart
TTITLE17=Mahalia Jackson - When I Wahe Up In Glory
TTITLE18=The Cumberland Boys - There Is Power In The Blood
TTITLE19=Sky Pilot Choir - Go Down Moses
TTITLE20=Etta James - Amen - This Little Light Of Mine
EXTD=
EXTT0=
EXTT1=
EXTT2=
EXTT3=
EXTT4=
EXTT5=
EXTT6=
EXTT7=
EXTT8=
EXTT9=
EXTT10=
EXTT11=
EXTT12=
EXTT13=
EXTT14=
EXTT15=
EXTT16=
EXTT17=
EXTT18=
EXTT19=
EXTT20=
PLAYORDER=
